<?xml version="1.0" encoding="UTF-8"?>
<svg version="1.1" xmlns="http://www.w3.org/2000/svg" width="500" height="500">
<path d="M0 0 C0.92452972 -0.0066568 1.84905945 -0.0133136 2.80160522 -0.02017212 C4.74613479 -0.03022766 6.69069837 -0.03499136 8.63525391 -0.03466797 C11.55821908 -0.03902122 14.47964657 -0.07536252 17.40234375 -0.11328125 C28.90869029 -0.18399747 38.98002148 0.77791818 49.9609375 4.3359375 C50.99428223 4.66964355 52.02762695 5.00334961 53.09228516 5.34716797 C55.91411666 6.31692013 58.68751395 7.36085338 61.4609375 8.4609375 C62.43506592 8.84564209 63.40919434 9.23034668 64.4128418 9.62670898 C84.68424333 17.91781066 104.63721206 32.8247555 117.9609375 50.3359375 C117.9609375 50.9959375 117.9609375 51.6559375 117.9609375 52.3359375 C118.6209375 52.3359375 119.2809375 52.3359375 119.9609375 52.3359375 C122.57107802 55.46105169 124.72356748 58.93812409 126.9609375 62.3359375 C127.60675781 63.30144531 128.25257813 64.26695312 128.91796875 65.26171875 C145.68245938 91.28470519 152.78848523 120.38616457 152.5234375 151.0859375 C152.52083923 152.08842529 152.51824097 153.09091309 152.51556396 154.1237793 C152.44570792 171.73311976 150.54854438 187.57311687 144.9609375 204.3359375 C156.1809375 204.3359375 167.4009375 204.3359375 178.9609375 204.3359375 C126.71117762 246.1357454 39.11910833 251.68387542 -24.8515625 245.08984375 C-64.23300871 240.49059798 -121.58585717 233.78914283 -151.0390625 204.3359375 C-136.1890625 203.8409375 -136.1890625 203.8409375 -121.0390625 203.3359375 C-122.3590625 199.0459375 -123.6790625 194.7559375 -125.0390625 190.3359375 C-128.12681952 178.45264066 -128.53819038 166.80132658 -128.48510742 154.57421875 C-128.4766126 151.60345671 -128.5054501 148.63463556 -128.53710938 145.6640625 C-128.59791789 129.31351792 -126.52062062 113.48553518 -120.7890625 98.0859375 C-120.49459229 97.2707666 -120.20012207 96.4555957 -119.89672852 95.61572266 C-114.25684312 80.44698713 -106.3726448 64.85342121 -96.0390625 52.3359375 C-95.3790625 52.3359375 -94.7190625 52.3359375 -94.0390625 52.3359375 C-93.82121094 51.80355469 -93.60335937 51.27117187 -93.37890625 50.72265625 C-81.16475334 28.96508357 -53.317604 14.38216449 -30.9140625 6.0859375 C-29.9955249 5.7441748 -29.0769873 5.40241211 -28.13061523 5.05029297 C-27.23157471 4.72689941 -26.33253418 4.40350586 -25.40625 4.0703125 C-24.61331543 3.78381836 -23.82038086 3.49732422 -23.00341797 3.20214844 C-15.33978235 0.9627662 -7.96878225 0.02060755 0 0 Z M-83.35644531 56.41943359 C-107.86089847 84.33004841 -119.4164573 124.71981218 -117.0390625 161.3359375 C-115.68651633 184.30384722 -115.68651633 184.30384722 -107.0390625 204.3359375 C-105.06892709 204.40910204 -103.09644399 204.42021974 -101.125 204.40625 C-77.05939016 204.50885837 -77.05939016 204.50885837 -66.8984375 210.29296875 C-56.44191711 216.20704354 -34.86055691 225.17340251 -22.6796875 222.89453125 C-22.13828125 222.71019531 -21.596875 222.52585937 -21.0390625 222.3359375 C-22.40224609 221.84287109 -22.40224609 221.84287109 -23.79296875 221.33984375 C-33.83817921 217.58215601 -45.33696953 213.03803047 -53.0390625 205.3359375 C-40.6640625 204.8409375 -40.6640625 204.8409375 -28.0390625 204.3359375 C-28.0390625 145.2659375 -28.0390625 86.1959375 -28.0390625 25.3359375 C-24.7390625 25.3359375 -21.4390625 25.3359375 -18.0390625 25.3359375 C-18.0390625 81.1059375 -18.0390625 136.8759375 -18.0390625 194.3359375 C-11.4390625 194.3359375 -4.8390625 194.3359375 1.9609375 194.3359375 C2.16842522 188.08825162 2.34721852 181.85264464 2.45532227 175.60424805 C2.50039884 173.48274105 2.56168184 171.36151081 2.63989258 169.2409668 C3.48850599 157.21579025 3.48850599 157.21579025 0.05810547 146.04003906 C-2.19059949 143.80101289 -4.41978821 142.11063728 -7.0390625 140.3359375 C-8.40853371 138.91148585 -9.74794145 137.45677182 -11.0390625 135.9609375 C-11.5959375 135.33445312 -12.1528125 134.70796875 -12.7265625 134.0625 C-14.93991431 131.15088839 -15.16357172 128.5540769 -15.15931702 125.02693176 C-15.16137901 123.70813774 -15.16137901 123.70813774 -15.16348267 122.36270142 C-15.15808975 120.92016495 -15.15808975 120.92016495 -15.15258789 119.44848633 C-15.15273392 118.43367691 -15.15287994 117.41886749 -15.1530304 116.37330627 C-15.15233276 113.01317215 -15.14454728 109.65309321 -15.13671875 106.29296875 C-15.13485404 103.96555105 -15.13343039 101.63813296 -15.13243103 99.31071472 C-15.12861001 93.18029703 -15.11878324 87.04990297 -15.10772705 80.91949463 C-15.09750402 74.66573405 -15.09293149 68.41196965 -15.08789062 62.15820312 C-15.07716063 49.88410419 -15.06008916 37.61002281 -15.0390625 25.3359375 C-13.28293584 25.42170796 -11.52783706 25.52868818 -9.7734375 25.64453125 C-8.79600586 25.70181396 -7.81857422 25.75909668 -6.81152344 25.81811523 C-2.0946283 26.6991063 0.08927294 29.71300617 2.9609375 33.3359375 C4.05980206 34.61135824 5.1641106 35.8821061 6.2734375 37.1484375 C6.84707031 37.81488281 7.42070312 38.48132813 8.01171875 39.16796875 C10.24364012 41.65036627 12.5862078 43.98994885 14.9609375 46.3359375 C17.89211941 49.23185708 20.72496924 52.13836321 23.3984375 55.2734375 C26.70372367 59.14132558 30.29088746 62.6951482 33.90942383 66.26489258 C37.18360155 69.51202495 40.25721711 72.85095512 43.19140625 76.40625 C44.96860332 78.44504353 44.96860332 78.44504353 47.38671875 80.265625 C53.56155676 85.35530485 53.56155676 85.35530485 54.35644531 89.29736328 C54.73643733 94.00905201 54.42755661 98.6409427 53.9609375 103.3359375 C53.22037109 102.4696875 53.22037109 102.4696875 52.46484375 101.5859375 C51.82417969 100.8434375 51.18351563 100.1009375 50.5234375 99.3359375 C49.88535156 98.5934375 49.24726563 97.8509375 48.58984375 97.0859375 C48.05230469 96.5084375 47.51476562 95.9309375 46.9609375 95.3359375 C46.6309375 95.3359375 46.3009375 95.3359375 45.9609375 95.3359375 C45.77516383 106.26283083 45.63322194 117.18934545 45.54644012 128.11749935 C45.50477766 133.1925905 45.44831519 138.26659732 45.35742188 143.34106445 C45.27017335 148.24300775 45.22259617 153.1439116 45.20191956 158.04657173 C45.18719495 159.91211872 45.15843962 161.777612 45.11509705 163.64271355 C44.49218021 175.62175864 44.49218021 175.62175864 49.94726562 185.79296875 C50.6711145 186.40430664 51.39496338 187.01564453 52.14074707 187.64550781 C54.2650795 189.61839732 54.62432267 190.655401 54.9609375 193.49609375 C54.9609375 197.109375 54.9609375 200.72265625 54.9609375 204.3359375 C62.8809375 204.6659375 70.8009375 204.9959375 78.9609375 205.3359375 C73.11417454 209.72100972 67.23440604 213.39272119 60.7109375 216.6484375 C60.03804687 216.98552734 59.36515625 217.32261719 58.671875 217.66992188 C54.84191354 219.54327259 51.04935507 221.08528803 46.9609375 222.3359375 C51.75171982 223.83836024 55.57229461 222.56444014 60.3359375 221.3984375 C61.25479736 221.17607422 62.17365723 220.95371094 63.12036133 220.72460938 C70.09992582 218.96125145 76.88212941 216.78821511 83.6484375 214.3359375 C84.97270752 213.8565271 84.97270752 213.8565271 86.32373047 213.36743164 C90.68507947 211.73346957 94.67643647 209.94430266 98.72265625 207.63671875 C104.96471491 204.43632304 111.19251876 204.5566499 118.0859375 204.5234375 C119.32859375 204.49830078 120.57125 204.47316406 121.8515625 204.44726562 C124.88834012 204.38886606 127.92369173 204.35223928 130.9609375 204.3359375 C134.04526804 197.28934687 136.09067621 190.35927338 137.6484375 182.8359375 C137.86048828 181.86785156 138.07253906 180.89976562 138.29101562 179.90234375 C146.27189232 142.38970564 137.88160813 101.7683572 117.19140625 69.61328125 C103.408935 49.36197936 85.05476634 33.29051879 62.77441406 23.16308594 C61.15592536 22.4248738 59.55325441 21.65220571 57.953125 20.875 C46.42291165 15.57559832 32.63965233 12.80407466 19.9609375 12.3359375 C18.83429688 12.284375 17.70765625 12.2328125 16.546875 12.1796875 C-22.90071336 11.2310481 -56.70125866 27.67086867 -83.35644531 56.41943359 Z M-5.0390625 42.3359375 C-5.17824949 53.16711595 -5.28477845 63.99808071 -5.34993553 74.82997227 C-5.38121231 79.86003329 -5.4236183 84.88948125 -5.49169922 89.91918945 C-5.55702222 94.77569009 -5.59279603 99.63160208 -5.60832596 104.48850822 C-5.61938912 106.33888958 -5.64099363 108.18923969 -5.67344284 110.03936958 C-5.71718011 112.6370548 -5.72298968 115.23232648 -5.72021484 117.83032227 C-5.7417865 118.59061737 -5.76335815 119.35091248 -5.7855835 120.13424683 C-5.72359204 125.51876085 -4.09678136 128.20195071 -0.42527199 132.10371304 C0.77638547 133.44666673 0.77638547 133.44666673 1.9609375 133.3359375 C2.1232266 122.35716133 2.24755675 111.37867111 2.3236227 100.39893913 C2.36013369 95.30035876 2.40964463 90.2025998 2.48901367 85.10449219 C2.56515028 80.18313673 2.60694385 75.26257055 2.6250782 70.34067154 C2.63799867 68.46431172 2.66323062 66.58799446 2.7010479 64.71197128 C2.7519809 62.08031128 2.75885704 59.4518989 2.75561523 56.81982422 C2.78078217 56.0465831 2.8059491 55.27334198 2.83187866 54.47666931 C2.78651764 51.06633229 2.63494402 49.11270556 0.34913826 46.47839737 C-1.38822907 44.97876014 -3.13752259 43.61884788 -5.0390625 42.3359375 Z M11.9609375 59.3359375 C11.82175673 70.29750176 11.71522465 81.25885492 11.65006447 92.2211237 C11.61878638 97.311715 11.57637785 102.40170062 11.50830078 107.49194336 C11.44298268 112.40679796 11.40720496 117.32107098 11.39167404 122.23632622 C11.38061002 124.10903514 11.35900385 125.98171316 11.32655716 127.85417366 C11.28282667 130.48298376 11.27701008 133.10940856 11.27978516 135.73852539 C11.2582135 136.50817123 11.23664185 137.27781708 11.2144165 138.07078552 C11.2760261 143.48498273 12.87787274 146.18392242 16.57472801 150.10694027 C17.77688662 151.44650445 17.77688662 151.44650445 18.9609375 151.3359375 C19.10011827 140.37437324 19.20665035 129.41302008 19.27181053 118.4507513 C19.30308862 113.36016 19.34549715 108.27017438 19.41357422 103.17993164 C19.47889232 98.26507704 19.51467004 93.35080402 19.53020096 88.43554878 C19.54126498 86.56283986 19.56287115 84.69016184 19.59531784 82.81770134 C19.63904833 80.18889124 19.64486492 77.56246644 19.64208984 74.93334961 C19.6636615 74.16370377 19.68523315 73.39405792 19.7074585 72.60108948 C19.6458489 67.18689227 18.04400226 64.48795258 14.34714699 60.56493473 C13.14498838 59.22537055 13.14498838 59.22537055 11.9609375 59.3359375 Z M28.9609375 77.3359375 C28.7986484 88.31471367 28.67431825 99.29320389 28.5982523 110.27293587 C28.56174131 115.37151624 28.51223037 120.4692752 28.43286133 125.56738281 C28.35672472 130.48873827 28.31493115 135.40930445 28.2967968 140.33120346 C28.28387633 142.20756328 28.25864438 144.08388054 28.2208271 145.95990372 C28.1698941 148.59156372 28.16301796 151.2199761 28.16625977 153.85205078 C28.14109283 154.6252919 28.1159259 155.39853302 28.08999634 156.19520569 C28.13535736 159.60554271 28.28693098 161.55916944 30.57273674 164.19347763 C32.31010407 165.69311486 34.05939759 167.05302712 35.9609375 168.3359375 C36.10012449 157.50475905 36.20665345 146.67379429 36.27181053 135.84190273 C36.30308731 130.81184171 36.3454933 125.78239375 36.41357422 120.75268555 C36.47889722 115.89618491 36.51467103 111.04027292 36.53020096 106.18336678 C36.54126412 104.33298542 36.56286863 102.48263531 36.59531784 100.63250542 C36.63905511 98.0348202 36.64486468 95.43954852 36.64208984 92.84155273 C36.6636615 92.08125763 36.68523315 91.32096252 36.7074585 90.53762817 C36.64546704 85.15311415 35.01865636 82.46992429 31.34714699 78.56816196 C30.14548953 77.22520827 30.14548953 77.22520827 28.9609375 77.3359375 Z M11.9609375 161.3359375 C11.9609375 172.2259375 11.9609375 183.1159375 11.9609375 194.3359375 C14.2709375 194.3359375 16.5809375 194.3359375 18.9609375 194.3359375 C19.16482102 189.96162786 19.28877356 185.58854285 19.3984375 181.2109375 C19.48641602 179.3546875 19.48641602 179.3546875 19.57617188 177.4609375 C19.59873047 176.26210938 19.62128906 175.06328125 19.64453125 173.828125 C19.69951782 172.17852783 19.69951782 172.17852783 19.75561523 170.49560547 C18.99843174 166.19914253 18.99843174 166.19914253 11.9609375 161.3359375 Z M28.9609375 179.3359375 C28.9609375 184.2859375 28.9609375 189.2359375 28.9609375 194.3359375 C31.2709375 194.3359375 33.5809375 194.3359375 35.9609375 194.3359375 C36.39571964 191.23035076 36.55891386 188.42631953 35.9609375 185.3359375 C33.86163935 182.73154506 31.74610875 181.27561034 28.9609375 179.3359375 Z M-23.0390625 204.3359375 C-15.21097448 212.16402552 2.11718732 212.52290851 12.7109375 212.6484375 C25.3446256 212.60588192 37.26576827 210.21718398 48.9609375 205.3359375 C48.9609375 205.0059375 48.9609375 204.6759375 48.9609375 204.3359375 C25.2009375 204.3359375 1.4409375 204.3359375 -23.0390625 204.3359375 Z M-106.0390625 206.3359375 C-105.7090625 207.6559375 -105.3790625 208.9759375 -105.0390625 210.3359375 C-102.7290625 210.9959375 -100.4190625 211.6559375 -98.0390625 212.3359375 C-101.51642276 208.55559127 -101.51642276 208.55559127 -106.0390625 206.3359375 Z M121.9609375 212.3359375 C124.9609375 213.66927083 124.9609375 213.66927083 127.9609375 212.3359375 C128.69417546 210.32085392 128.69417546 210.32085392 128.9609375 208.3359375 C126.56918151 208.3359375 123.87595266 211.03209739 121.9609375 212.3359375 Z " fill="#476BBC" transform="translate(238.0390625,140.6640625)"/>
<path d="M0 0 C3.3 0 6.6 0 10 0 C10 55.77 10 111.54 10 169 C16.6 169 23.2 169 30 169 C30.06404724 162.75155113 30.10028291 156.51527956 30.06713867 150.26831055 C30.06406948 148.14717905 30.0768463 146.02595988 30.10620117 143.9050293 C30.66363081 131.85631535 30.66363081 131.85631535 27.06591797 120.70410156 C24.82611693 118.47394098 22.60278237 116.77687582 20 115 C18.63116413 113.57493781 17.29191855 112.1201456 16 110.625 C15.443125 109.99851562 14.88625 109.37203125 14.3125 108.7265625 C12.09128896 105.80461226 11.87930767 103.22821597 11.91770935 99.69099426 C11.92474884 98.81179825 11.93178833 97.93260223 11.93904114 97.02676392 C11.95198715 96.06507294 11.96493317 95.10338196 11.97827148 94.11254883 C11.98787903 93.09773941 11.99748657 92.08292999 12.00738525 91.03736877 C12.04041247 87.67718651 12.08073079 84.31713275 12.12109375 80.95703125 C12.14539122 78.62961787 12.16923496 76.30219972 12.19264221 73.97477722 C12.25552023 67.84431523 12.32457643 61.71393766 12.39489746 55.58355713 C12.46554729 49.32983245 12.53038431 43.07604785 12.59570312 36.82226562 C12.7247634 24.54811123 12.86034729 12.27403813 13 0 C14.77944308 -0.03967972 16.55913878 -0.06815483 18.33886719 -0.09179688 C19.32989441 -0.10883667 20.32092163 -0.12587646 21.34197998 -0.14343262 C24 0 24 0 26.578125 1.46875 C27.40570313 2.47421875 27.40570313 2.47421875 28.25 3.5 C28.88679688 4.23476562 29.52359375 4.96953125 30.1796875 5.7265625 C30.78039062 6.47679687 31.38109375 7.22703125 32 8 C33.12025762 9.29578186 34.24518821 10.58754006 35.375 11.875 C35.93960938 12.53242188 36.50421875 13.18984375 37.0859375 13.8671875 C39.30451828 16.33932036 41.63706669 18.66562178 44 21 C46.93118191 23.89591958 49.76403174 26.80242571 52.4375 29.9375 C55.74278617 33.80538808 59.32994996 37.3592107 62.94848633 40.92895508 C66.22344937 44.17686628 69.29901577 47.51510674 72.23046875 51.07421875 C74.00355921 53.10944108 74.00355921 53.10944108 76.42578125 54.89453125 C82.59987442 59.91638308 82.59987442 59.91638308 83.39550781 64.05957031 C83.77759457 69.06938938 83.464456 74.00566444 83 79 C81.85073734 78.04578192 80.70569459 77.08647955 79.5625 76.125 C78.60537109 75.32449219 78.60537109 75.32449219 77.62890625 74.5078125 C76 73 76 73 75 71 C74.81421561 81.79650594 74.67227916 92.59262847 74.58550262 103.39041042 C74.54384239 108.40497441 74.48738435 113.41844074 74.39648438 118.43237305 C74.30922736 123.27596295 74.26165699 128.11850072 74.24098206 132.96281624 C74.22625892 134.80603656 74.19750645 136.6492026 74.15415955 138.49197197 C73.51895311 148.5545468 73.51895311 148.5545468 76.83422852 157.66409302 C77.56504639 158.35767914 78.29586426 159.05126526 79.04882812 159.76586914 C83 164 83 164 83 179 C55.61 179 28.22 179 0 179 C0 119.93 0 60.86 0 0 Z M23 17 C22.86081301 27.83117845 22.75428405 38.66214321 22.68912697 49.49403477 C22.65785019 54.52409579 22.6154442 59.55354375 22.54736328 64.58325195 C22.48204028 69.43975259 22.44626647 74.29566458 22.43073654 79.15257072 C22.41967338 81.00295208 22.39806887 82.85330219 22.36561966 84.70343208 C22.32188239 87.3011173 22.31607282 89.89638898 22.31884766 92.49438477 C22.297276 93.25467987 22.27570435 94.01497498 22.253479 94.79830933 C22.31547046 100.18282335 23.94228114 102.86601321 27.61379051 106.76777554 C28.81544797 108.11072923 28.81544797 108.11072923 30 108 C30.1622891 97.02122383 30.28661925 86.04273361 30.3626852 75.06300163 C30.39919619 69.96442126 30.44870713 64.8666623 30.52807617 59.76855469 C30.60421278 54.84719923 30.64600635 49.92663305 30.6641407 45.00473404 C30.67706117 43.12837422 30.70229312 41.25205696 30.7401104 39.37603378 C30.7910434 36.74437378 30.79791954 34.1159614 30.79467773 31.48388672 C30.81984467 30.7106456 30.8450116 29.93740448 30.87094116 29.14073181 C30.82558014 25.73039479 30.67400652 23.77676806 28.38820076 21.14245987 C26.65083343 19.64282264 24.90153991 18.28291038 23 17 Z M40 34 C39.86081923 44.96156426 39.75428715 55.92291742 39.68912697 66.8851862 C39.65784888 71.9757775 39.61544035 77.06576312 39.54736328 82.15600586 C39.48204518 87.07086046 39.44626746 91.98513348 39.43073654 96.90038872 C39.41967252 98.77309764 39.39806635 100.64577566 39.36561966 102.51823616 C39.32188917 105.14704626 39.31607258 107.77347106 39.31884766 110.40258789 C39.297276 111.17223373 39.27570435 111.94187958 39.253479 112.73484802 C39.3150886 118.14904523 40.91693524 120.84798492 44.61379051 124.77100277 C45.81594912 126.11056695 45.81594912 126.11056695 47 126 C47.13918077 115.03843574 47.24571285 104.07708258 47.31087303 93.1148138 C47.34215112 88.0242225 47.38455965 82.93423688 47.45263672 77.84399414 C47.51795482 72.92913954 47.55373254 68.01486652 47.56926346 63.09961128 C47.58032748 61.22690236 47.60193365 59.35422434 47.63438034 57.48176384 C47.67811083 54.85295374 47.68392742 52.22652894 47.68115234 49.59741211 C47.702724 48.82776627 47.72429565 48.05812042 47.746521 47.26515198 C47.6849114 41.85095477 46.08306476 39.15201508 42.38620949 35.22899723 C41.18405088 33.88943305 41.18405088 33.88943305 40 34 Z M57 52 C56.8377109 62.97877617 56.71338075 73.95726639 56.6373148 84.93699837 C56.60080381 90.03557874 56.55129287 95.1333377 56.47192383 100.23144531 C56.39578722 105.15280077 56.35399365 110.07336695 56.3358593 114.99526596 C56.32293883 116.87162578 56.29770688 118.74794304 56.2598896 120.62396622 C56.2089566 123.25562622 56.20208046 125.8840386 56.20532227 128.51611328 C56.18015533 129.2893544 56.1549884 130.06259552 56.12905884 130.85926819 C56.17441986 134.26960521 56.32599348 136.22323194 58.61179924 138.85754013 C60.34916657 140.35717736 62.09846009 141.71708962 64 143 C64.13918699 132.16882155 64.24571595 121.33785679 64.31087303 110.50596523 C64.34214981 105.47590421 64.3845558 100.44645625 64.45263672 95.41674805 C64.51795972 90.56024741 64.55373353 85.70433542 64.56926346 80.84742928 C64.58032662 78.99704792 64.60193113 77.14669781 64.63438034 75.29656792 C64.67811761 72.6988827 64.68392718 70.10361102 64.68115234 67.50561523 C64.702724 66.74532013 64.72429565 65.98502502 64.746521 65.20169067 C64.68452954 59.81717665 63.05771886 57.13398679 59.38620949 53.23222446 C58.18455203 51.88927077 58.18455203 51.88927077 57 52 Z M40 136 C40 146.89 40 157.78 40 169 C42.31 169 44.62 169 47 169 C47.20388352 164.62569036 47.32783606 160.25260535 47.4375 155.875 C47.52547852 154.01875 47.52547852 154.01875 47.61523438 152.125 C47.63779297 150.92617188 47.66035156 149.72734375 47.68359375 148.4921875 C47.73858032 146.84259033 47.73858032 146.84259033 47.79467773 145.15966797 C47.03749424 140.86320503 47.03749424 140.86320503 40 136 Z M57 154 C57 158.95 57 163.9 57 169 C59.31 169 61.62 169 64 169 C64.43478214 165.89441326 64.59797636 163.09038203 64 160 C61.90070185 157.39560756 59.78517125 155.93967284 57 154 Z " fill="#5276C2" transform="translate(210,166)"/>
<path d="M0 0 C3.3 0 6.6 0 10 0 C10 56.1 10 112.2 10 170 C4 171 4 171 1 170 C1 172.97 1 175.94 1 179 C0.67 179 0.34 179 0 179 C0 119.93 0 60.86 0 0 Z " fill="#7B9AD8" transform="translate(210,166)"/>
<path d="M0 0 C1.32 0 2.64 0 4 0 C4 55.77 4 111.54 4 169 C2.35 169 0.7 169 -1 169 C-1.0233268 147.11279336 -1.0409781 125.22558876 -1.05181217 103.33837223 C-1.0569756 93.176505 -1.06401917 83.01464548 -1.07543945 72.8527832 C-1.08538488 63.99906374 -1.09185309 55.14534986 -1.09408849 46.29162496 C-1.09539584 41.60062465 -1.09848321 36.90964031 -1.10573006 32.2186451 C-1.11248805 27.80860748 -1.11461742 23.39859249 -1.11310768 18.98855019 C-1.11338411 17.36512377 -1.11539054 15.74169664 -1.11920547 14.11827469 C-1.12413928 11.9115495 -1.12299947 9.70491117 -1.12025452 7.4981842 C-1.12117631 6.26021623 -1.1220981 5.02224825 -1.12304783 3.74676609 C-1 1 -1 1 0 0 Z " fill="#5069A1" transform="translate(216,166)"/>
<path d="M0 0 C5.91075151 5.91075151 6.15023914 6.34845779 6.20532227 14.09985352 C6.21522186 14.94856018 6.22512146 15.79726685 6.23532104 16.67169189 C6.26703247 19.49073449 6.29173139 22.30979398 6.31640625 25.12890625 C6.33696746 27.07804311 6.3579637 29.02717544 6.37937927 30.9763031 C6.43468598 36.11701793 6.4840572 41.25777357 6.53222656 46.39855957 C6.58237897 51.64009247 6.63809763 56.8815658 6.69335938 62.12304688 C6.80104606 72.41531375 6.90246753 82.70763225 7 93 C6.34 93 5.68 93 5 93 C3.97971135 91.68212715 2.98028616 90.34789347 2 89 C1.34 88.67 0.68 88.34 0 88 C0 58.96 0 29.92 0 0 Z " fill="#6681BE" transform="translate(257,207)"/>
<path d="M0 0 C4.45580486 4.45580486 4.45580486 4.45580486 4.53892517 9.63485718 C4.53075272 10.37781036 4.52258026 11.12076355 4.51416016 11.88623047 C4.52128525 12.6769696 4.52841034 13.46770874 4.53575134 14.28240967 C4.55503683 16.89425626 4.54675102 19.50529328 4.5390625 22.1171875 C4.54896928 23.93556908 4.56091045 25.75394061 4.57479858 27.57229614 C4.60718687 32.36057798 4.61755435 37.14863113 4.62164307 41.93701172 C4.63039188 49.5939776 4.66597003 57.25075519 4.7138176 64.90756607 C4.72638127 67.57865698 4.72564623 70.24950936 4.72354126 72.92062378 C4.73012454 74.56541119 4.73713138 76.21019697 4.74462891 77.85498047 C4.74050491 78.59388519 4.73638092 79.33278992 4.73213196 80.09408569 C4.78705576 87.15926957 6.33234337 91.70998916 11 97 C8.03 97.99 8.03 97.99 5 99 C5.061875 98.113125 5.12375 97.22625 5.1875 96.3125 C4.97858694 92.62170254 4.18129404 90.93635736 2 88 C1.34 87.67 0.68 87.34 0 87 C0 58.29 0 29.58 0 0 Z " fill="#7B9DDC" transform="translate(274,225)"/>
<path d="M0 0 C3.54346744 2.83569762 4.8914739 4.26246527 5.56330872 8.82820129 C5.5600773 10.34253196 5.52906755 11.8569633 5.47583008 13.37036133 C5.46680664 14.20014496 5.4577832 15.02992859 5.44848633 15.88485718 C5.41281421 18.61821937 5.34137482 21.34940063 5.26953125 24.08203125 C5.23775693 25.98057041 5.20822121 27.87914825 5.18083191 29.77775574 C5.10283665 34.76781255 4.99446945 39.75676388 4.87976074 44.74609375 C4.76802351 49.84017592 4.68502733 54.93471745 4.59960938 60.02929688 C4.42786145 70.0201903 4.22402274 80.01015159 4 90 C2.02838135 89.02043152 2.02838135 89.02043152 0 87 C-0.38113057 84.09716191 -0.50609201 81.57511294 -0.45410156 78.6730957 C-0.45468567 77.82409698 -0.45526978 76.97509827 -0.45587158 76.10037231 C-0.45308295 73.29176058 -0.42195464 70.48420776 -0.390625 67.67578125 C-0.38316537 65.72951335 -0.37747113 63.78323793 -0.37347412 61.83695984 C-0.3581959 56.71246634 -0.31889517 51.58842578 -0.2746582 46.46411133 C-0.2337527 41.23590218 -0.2154732 36.0076199 -0.1953125 30.77929688 C-0.1524031 20.51933216 -0.08412525 10.25970373 0 0 Z " fill="#7D9EDE" transform="translate(240,189)"/>
<path d="M0 0 C3.56796039 2.84701161 4.89410457 4.27320633 5.56330872 8.86616516 C5.56007668 10.39843691 5.52905836 11.93080784 5.47583008 13.4621582 C5.46680664 14.3016954 5.4577832 15.1412326 5.44848633 16.00621033 C5.41281091 18.77202635 5.34137099 21.53568805 5.26953125 24.30078125 C5.23775734 26.22174108 5.20822156 28.14273913 5.18083191 30.06376648 C5.10283286 35.11299973 4.99446572 40.16114078 4.87976074 45.20965576 C4.76802797 50.36406482 4.68502879 55.51892774 4.59960938 60.67382812 C4.42785616 70.78320325 4.22401672 80.89165741 4 91 C2.02838135 89.52752686 2.02838135 89.52752686 0 87 C-0.37397194 84.05819177 -0.50696673 81.49719669 -0.45410156 78.55957031 C-0.45468567 77.71042557 -0.45526978 76.86128082 -0.45587158 75.98640442 C-0.45308765 73.18322694 -0.42198145 70.38111642 -0.390625 67.578125 C-0.3831637 65.63328635 -0.37747024 63.68844017 -0.37347412 61.74359131 C-0.35820907 56.6273316 -0.31891961 51.51152686 -0.2746582 46.39544678 C-0.23372437 41.17385004 -0.21546713 35.95217972 -0.1953125 30.73046875 C-0.15242633 20.48677939 -0.08416432 10.24342754 0 0 Z " fill="#4E639E" transform="translate(280,230)"/>
<path d="M0 0 C0.66 1.32 1.32 2.64 2 4 C2.66 4 3.32 4 4 4 C4 32.71 4 61.42 4 91 C1 89 1 89 0 86 C-0.09133385 83.24629771 -0.12600326 80.51841178 -0.11352539 77.76489258 C-0.11367142 76.92564743 -0.11381744 76.08640228 -0.1139679 75.22172546 C-0.11327087 72.44596783 -0.10548829 69.67027718 -0.09765625 66.89453125 C-0.09579132 64.97067807 -0.09436777 63.04682441 -0.09336853 61.12297058 C-0.08954924 56.05785818 -0.07972394 50.99277442 -0.06866455 45.92767334 C-0.05843781 40.75972888 -0.0538682 35.59177979 -0.04882812 30.42382812 C-0.03810117 20.28253949 -0.02103177 10.14127213 0 0 Z " fill="#4B659C" transform="translate(263,212)"/>
<path d="M0 0 C0.66 0 1.32 0 2 0 C2.33 1.98 2.66 3.96 3 6 C3.7425 5.9175 4.485 5.835 5.25 5.75 C8.78157027 6.07105184 9.76630364 7.35265617 12 10 C11.67 10.99 11.34 11.98 11 13 C10.92970879 15.57265818 10.90629168 18.11641431 10.9375 20.6875 C10.94201172 21.38939453 10.94652344 22.09128906 10.95117188 22.81445312 C10.96293073 24.54300538 10.98086546 26.27151365 11 28 C7.681572 29.659214 4.60735024 28.57259528 1 28 C0 27 0 27 -0.11352539 24.40795898 C-0.10828857 23.28204346 -0.10305176 22.15612793 -0.09765625 20.99609375 C-0.09443359 19.78115234 -0.09121094 18.56621094 -0.08789062 17.31445312 C-0.07951172 16.03505859 -0.07113281 14.75566406 -0.0625 13.4375 C-0.05798828 12.15423828 -0.05347656 10.87097656 -0.04882812 9.54882812 C-0.03699545 6.36583978 -0.02051068 3.18294238 0 0 Z " fill="#7DA2E8" transform="translate(257,308)"/>
<path d="M0 0 C3 1 3 1 5 4 C5.31884766 6.58105469 5.31884766 6.58105469 5.4140625 9.671875 C5.45281494 10.80520264 5.49156738 11.93853027 5.53149414 13.10620117 C5.56235107 14.30865479 5.59320801 15.5111084 5.625 16.75 C5.66294678 17.96598877 5.70089355 19.18197754 5.73999023 20.43481445 C5.99052237 28.95801982 6.12853706 37.47370854 6 46 C7.98 46 9.96 46 12 46 C12 46.33 12 46.66 12 47 C8.03611362 47.07622858 4.8726592 46.9681648 1 46 C0.67 30.82 0.34 15.64 0 0 Z " fill="#7A9DE2" transform="translate(239,289)"/>
<path d="M0 0 C3.34472112 3.34472112 3.34793413 4.37349857 3.3732605 8.89439392 C3.36247467 9.69712234 3.35168884 10.49985077 3.34057617 11.3269043 C3.34101425 12.17590302 3.34145233 13.02490173 3.34190369 13.89962769 C3.33981235 16.70805801 3.31646514 19.51589261 3.29296875 22.32421875 C3.28737402 24.27048924 3.28310334 26.21676394 3.28010559 28.16304016 C3.26864713 33.2874415 3.23917129 38.41158805 3.20599365 43.53588867 C3.17531437 48.76412509 3.16160483 53.99240265 3.14648438 59.22070312 C3.1143026 69.48058074 3.0630941 79.74026919 3 90 C2.34 89.67 1.68 89.34 1 89 C0.67 59.63 0.34 30.26 0 0 Z " fill="#435B91" transform="translate(247,195)"/>
<path d="M0 0 C1.485 0.99 1.485 0.99 3 2 C3.25644813 4.75470503 3.31913681 7.27781944 3.2487793 10.02978516 C3.23946381 10.85913071 3.23014832 11.68847626 3.22055054 12.54295349 C3.18609677 15.29206583 3.1302178 18.04031146 3.07421875 20.7890625 C3.04619499 22.69190613 3.0195036 24.59476981 2.99409485 26.49765015 C2.92354338 31.51207972 2.83484034 36.52603204 2.74243164 41.5401001 C2.65136729 46.65417298 2.57736522 51.7684891 2.50195312 56.8828125 C2.35139128 66.92218815 2.18166405 76.96114238 2 87 C1.34 87 0.68 87 0 87 C0 58.29 0 29.58 0 0 Z " fill="#83A8ED" transform="translate(257,207)"/>
<path d="M0 0 C0.33 0 0.66 0 1 0 C1 28.05 1 56.1 1 85 C0.01 85.495 0.01 85.495 -1 86 C-1.66 85.34 -2.32 84.68 -3 84 C-2.34 84 -1.68 84 -1 84 C-1.00222061 82.96239029 -1.00444122 81.92478058 -1.00672913 80.85572815 C-1.02696028 71.09923729 -1.04197201 61.34275067 -1.05181217 51.58624363 C-1.05704107 46.5697753 -1.06413883 41.55332385 -1.07543945 36.53686523 C-1.0862681 31.69990306 -1.09227679 26.86295716 -1.09487724 22.02598381 C-1.09673153 20.17631715 -1.10035222 18.32665143 -1.10573006 16.47699165 C-1.1129402 13.89552986 -1.11399095 11.31413618 -1.11352539 8.73266602 C-1.11712067 7.96014999 -1.12071594 7.18763397 -1.12442017 6.39170837 C-1.11405216 1.11405216 -1.11405216 1.11405216 0 0 Z " fill="#7495D4" transform="translate(260,210)"/>
<path d="M0 0 C0.99 0 1.98 0 3 0 C4.55977064 3.11954128 4.12104126 6.42959384 4.09765625 9.8515625 C4.0962413 10.62559418 4.09482635 11.39962585 4.09336853 12.19711304 C4.08776403 14.67311442 4.07521083 17.14902588 4.0625 19.625 C4.05748558 21.30208203 4.05292257 22.97916547 4.04882812 24.65625 C4.03779315 28.77086806 4.02052554 32.88541878 4 37 C2.68 37 1.36 37 0 37 C0 24.79 0 12.58 0 0 Z " fill="#4A659A" transform="translate(246,298)"/>
<path d="M0 0 C4 2 4 2 5 3 C5.07325168 5.86267567 5.09238205 8.700719 5.0625 11.5625 C5.05798828 12.36880859 5.05347656 13.17511719 5.04882812 14.00585938 C5.03700518 16.00393756 5.01906914 18.00197783 5 20 C3.35 20 1.7 20 0 20 C0 13.4 0 6.8 0 0 Z " fill="#5675AE" transform="translate(262,315)"/>
<path d="M0 0 C1.98 0 3.96 0 6 0 C6.66 2.31 7.32 4.62 8 7 C6.5 5.625 6.5 5.625 5 4 C5 3.34 5 2.68 5 2 C4.01 2 3.02 2 2 2 C2 14.21 2 26.42 2 39 C1.67 39 1.34 39 1 39 C-0.16652651 26.00156173 -0.10531468 13.04119828 0 0 Z " fill="#6382BF" transform="translate(244,296)"/>
<path d="M0 0 C0.66 0 1.32 0 2 0 C2 0.66 2 1.32 2 2 C3.65 2 5.3 2 7 2 C7 3.98 7 5.96 7 8 C7.66 8 8.32 8 9 8 C8.67 9.32 8.34 10.64 8 12 C5.69 12 3.38 12 1 12 C0.67 8.04 0.34 4.08 0 0 Z " fill="#7E9FE7" transform="translate(273,324)"/>
<path d="M0 0 C5 0 5 0 7.3125 2 C8.1478125 2.99 8.1478125 2.99 9 4 C8.67 4.99 8.34 5.98 8 7 C7.38125 6.195625 6.7625 5.39125 6.125 4.5625 C4.25835959 1.96125481 4.25835959 1.96125481 2 1 C2 7.6 2 14.2 2 21 C1.01 21 0.02 21 -1 21 C-0.67 14.07 -0.34 7.14 0 0 Z " fill="#6D8FD0" transform="translate(260,314)"/>
<path d="M0 0 C1.485 0.99 1.485 0.99 3 2 C3.2208564 4.95064148 3.28060989 7.68368231 3.1875 10.625 C3.17396484 11.42679687 3.16042969 12.22859375 3.14648438 13.0546875 C3.11109051 15.03674378 3.05728234 17.01845551 3 19 C2.34 19 1.68 19 1 19 C0.67 12.73 0.34 6.46 0 0 Z " fill="#405D94" transform="translate(264,316)"/>
<path d="M0 0 C0.66 0 1.32 0 2 0 C2.66 2.31 3.32 4.62 4 7 C1.69 6.34 -0.62 5.68 -3 5 C-2.34 4.67 -1.68 4.34 -1 4 C-0.34786708 1.97536745 -0.34786708 1.97536745 0 0 Z " fill="#6E92E1" transform="translate(129,344)"/>
<path d="M0 0 C2 1 4 2 6 3 C5.67 4.32 5.34 5.64 5 7 C3.68 6.67 2.36 6.34 1 6 C0.67 4.02 0.34 2.04 0 0 Z " fill="#6F8CD7" transform="translate(276,329)"/>
</svg>
